<svg width="263" height="134" viewBox="0 0 263 134" fill="none" xmlns="http://www.w3.org/2000/svg">
<g clip-path="url(#clip0_202_292)">
<path d="M169.655 98.1127C169.822 97.5886 169.92 97.045 169.947 96.4956C169.947 95.4274 169.214 95.2791 167.473 95.1752C167.324 95.1752 167.28 95.0466 167.28 94.9428C167.278 94.9147 167.283 94.8866 167.293 94.8604C167.304 94.8342 167.319 94.8104 167.339 94.7908C167.359 94.7711 167.384 94.756 167.41 94.7464C167.436 94.7368 167.465 94.7329 167.493 94.7351C167.681 94.7351 168.057 94.7351 168.561 94.7944C169.066 94.8538 169.551 94.839 170.179 94.839C170.808 94.839 171.268 94.8389 171.664 94.7944C172.059 94.7499 172.46 94.7351 172.713 94.7351C172.741 94.7329 172.769 94.7368 172.795 94.7464C172.822 94.756 172.846 94.7711 172.866 94.7908C172.886 94.8104 172.902 94.8342 172.912 94.8604C172.922 94.8866 172.927 94.9147 172.925 94.9428C172.925 95.0466 172.861 95.1307 172.713 95.1505C171.204 95.2791 170.867 95.8428 169.798 99.6012L166.647 110.481H165.657L161.699 98.6122L157.919 110.481H156.85L153.03 97.9347C152.318 95.6302 152.041 95.2741 150.72 95.1653C150.576 95.1653 150.512 95.0615 150.512 94.9576C150.511 94.9279 150.516 94.8983 150.528 94.871C150.54 94.8436 150.557 94.8191 150.579 94.7993C150.602 94.7795 150.628 94.7648 150.656 94.7563C150.685 94.7477 150.715 94.7456 150.744 94.7499C150.848 94.7499 150.913 94.7499 151.269 94.7499C152.402 94.8142 153.248 94.834 153.931 94.834C154.5 94.834 156.138 94.834 156.9 94.7697C157.661 94.7054 157.889 94.7301 158.181 94.7301C158.21 94.7281 158.239 94.7319 158.266 94.7414C158.294 94.7508 158.319 94.7656 158.341 94.785C158.363 94.8044 158.38 94.8278 158.393 94.8541C158.405 94.8803 158.412 94.9088 158.414 94.9378C158.414 94.9684 158.407 94.9986 158.396 95.0268C158.384 95.055 158.367 95.0806 158.345 95.1022C158.324 95.1238 158.298 95.1409 158.27 95.1526C158.242 95.1642 158.211 95.1703 158.181 95.1703C156.271 95.1703 155.663 95.3977 155.663 96.1593C155.678 96.48 155.735 96.7974 155.831 97.1038L158.582 106.881L162.337 95.0466H163.45L167.25 106.881L169.655 98.1127Z" fill="white"/>
<path d="M184.85 107.548C185.666 109.586 185.983 109.897 187.072 110.045C187.24 110.045 187.304 110.149 187.304 110.258C187.305 110.288 187.3 110.317 187.288 110.345C187.276 110.372 187.259 110.397 187.237 110.416C187.215 110.436 187.188 110.451 187.16 110.459C187.131 110.468 187.101 110.47 187.072 110.466C186.844 110.466 186.423 110.466 185.899 110.426C185.162 110.382 184.301 110.362 183.717 110.362C182.831 110.362 181.387 110.402 180.546 110.446C180.051 110.446 179.917 110.446 179.665 110.446C179.634 110.451 179.603 110.449 179.574 110.44C179.544 110.432 179.517 110.417 179.494 110.397C179.471 110.377 179.452 110.353 179.439 110.325C179.426 110.297 179.42 110.267 179.42 110.236C179.42 110.205 179.426 110.175 179.439 110.147C179.452 110.119 179.471 110.094 179.494 110.074C179.517 110.055 179.544 110.04 179.574 110.031C179.603 110.023 179.634 110.021 179.665 110.026C180.125 110.026 180.61 109.986 181.05 109.942C181.847 109.858 182.203 109.546 182.203 108.953C182.165 108.453 182.045 107.964 181.847 107.504L180.714 104.398H176.241L175.276 106.979C174.995 107.604 174.827 108.274 174.781 108.958C174.781 109.566 175.098 109.877 175.83 109.947C176.251 109.991 176.587 110.011 176.691 110.011C176.719 110.009 176.747 110.013 176.774 110.022C176.8 110.032 176.825 110.047 176.845 110.067C176.865 110.086 176.88 110.11 176.891 110.136C176.901 110.162 176.905 110.19 176.904 110.219C176.907 110.248 176.905 110.278 176.895 110.307C176.886 110.335 176.871 110.362 176.851 110.384C176.831 110.406 176.806 110.423 176.778 110.435C176.751 110.446 176.721 110.452 176.691 110.451C176.483 110.451 175.999 110.451 175.37 110.387C174.969 110.387 174.489 110.347 173.985 110.347C173.609 110.347 173.421 110.347 172.891 110.387C172.451 110.431 172.035 110.451 171.902 110.451C171.768 110.451 171.694 110.367 171.694 110.263C171.692 110.235 171.696 110.207 171.705 110.18C171.715 110.154 171.73 110.13 171.75 110.11C171.769 110.09 171.793 110.074 171.819 110.064C171.846 110.053 171.874 110.049 171.902 110.05C173.386 110.05 173.856 109.299 174.945 106.445L179.353 94.8835C179.398 94.7797 179.457 94.7203 179.521 94.7203C179.586 94.7203 179.67 94.7797 179.709 94.8835L184.85 107.548ZM180.546 103.963L178.512 98.4045L176.409 103.963H180.546Z" fill="white"/>
<path d="M199.767 106.604C199.767 105.387 199.707 105.011 198.847 104.947C198.129 104.907 197.436 104.888 197.268 104.888C197.239 104.889 197.21 104.884 197.183 104.874C197.156 104.864 197.131 104.849 197.109 104.829C197.088 104.809 197.071 104.785 197.059 104.759C197.048 104.732 197.041 104.704 197.041 104.675C197.041 104.646 197.048 104.618 197.059 104.592C197.071 104.565 197.089 104.542 197.11 104.522C197.131 104.503 197.156 104.488 197.183 104.478C197.211 104.469 197.239 104.465 197.268 104.467C197.377 104.467 197.545 104.467 197.763 104.467C198.352 104.512 199.381 104.571 201.123 104.571C201.795 104.571 202.825 104.512 203.493 104.467C203.809 104.467 204.042 104.467 204.126 104.467C204.294 104.467 204.378 104.551 204.378 104.675C204.376 104.706 204.368 104.736 204.354 104.763C204.34 104.791 204.321 104.815 204.298 104.835C204.274 104.855 204.247 104.87 204.217 104.879C204.188 104.888 204.156 104.891 204.126 104.888H203.809C202.741 104.888 202.359 105.075 202.359 106.416V108.156C202.348 108.669 202.42 109.18 202.572 109.67C202.61 109.778 202.63 109.891 202.632 110.006C202.634 110.031 202.631 110.057 202.622 110.08C202.613 110.104 202.599 110.126 202.582 110.144C202.564 110.162 202.542 110.175 202.518 110.184C202.494 110.193 202.469 110.196 202.444 110.194C202.383 110.188 202.324 110.166 202.275 110.129C201.885 109.809 201.395 109.634 200.89 109.635C200.36 109.635 199.837 109.757 199.361 109.991C198.433 110.433 197.42 110.669 196.392 110.683C191.88 110.683 188.54 107.434 188.54 103.196C188.526 100.955 189.386 98.7967 190.938 97.1791C192.49 95.5615 194.612 94.612 196.853 94.5323C198.095 94.5267 199.327 94.7549 200.484 95.2049C200.793 95.3585 201.129 95.4508 201.474 95.4768C201.81 95.4768 201.894 95.3532 201.969 95.101C202.008 94.9922 202.053 94.9527 202.137 94.9527C202.158 94.9498 202.179 94.9516 202.2 94.9577C202.22 94.9639 202.239 94.9744 202.255 94.9885C202.271 95.0025 202.283 95.0199 202.292 95.0393C202.301 95.0587 202.305 95.0797 202.305 95.101C202.289 95.2905 202.26 95.4787 202.221 95.6647C202.103 96.4072 202.047 97.1581 202.053 97.9099C202.053 98.4984 202.053 99.1709 202.117 99.9473C202.117 100.071 202.053 100.135 201.949 100.135C201.902 100.137 201.856 100.12 201.821 100.089C201.786 100.057 201.765 100.014 201.761 99.9671C200.9 96.2335 199.03 94.9082 196.744 94.9082C193.74 94.9082 191.796 98.9187 191.796 102.652C191.796 107.103 194.042 110.307 196.937 110.307C198.134 110.307 199.727 109.66 199.727 107.622L199.767 106.604Z" fill="white"/>
<path d="M218.51 107.548C219.326 109.586 219.643 109.897 220.736 110.045C220.904 110.045 220.964 110.149 220.964 110.258C220.966 110.288 220.961 110.317 220.95 110.344C220.938 110.372 220.921 110.396 220.9 110.416C220.878 110.436 220.852 110.451 220.823 110.46C220.795 110.468 220.765 110.47 220.736 110.466C220.504 110.466 220.083 110.466 219.558 110.426C218.826 110.382 217.965 110.362 217.377 110.362C216.496 110.362 215.046 110.402 214.205 110.446C213.71 110.446 213.577 110.446 213.324 110.446C213.274 110.438 213.228 110.413 213.195 110.374C213.162 110.336 213.144 110.287 213.144 110.236C213.144 110.185 213.162 110.136 213.195 110.097C213.228 110.059 213.274 110.033 213.324 110.026C213.79 110.026 214.269 109.986 214.71 109.942C215.506 109.858 215.867 109.546 215.867 108.953C215.827 108.453 215.705 107.964 215.506 107.504L214.373 104.398H209.886L208.896 106.979C208.614 107.604 208.446 108.274 208.401 108.958C208.401 109.566 208.713 109.877 209.45 109.947C209.871 109.991 210.202 110.011 210.311 110.011C210.339 110.009 210.366 110.014 210.392 110.024C210.418 110.034 210.442 110.049 210.461 110.069C210.481 110.088 210.496 110.112 210.506 110.137C210.516 110.163 210.52 110.191 210.519 110.219C210.523 110.248 210.521 110.278 210.513 110.307C210.504 110.335 210.489 110.361 210.47 110.383C210.45 110.406 210.425 110.423 210.398 110.435C210.37 110.447 210.341 110.452 210.311 110.451C210.098 110.451 209.619 110.451 208.985 110.387C208.589 110.387 208.104 110.347 207.605 110.347C207.224 110.347 207.036 110.347 206.511 110.387C206.071 110.431 205.65 110.451 205.522 110.451C205.495 110.455 205.468 110.452 205.443 110.445C205.417 110.437 205.394 110.423 205.374 110.405C205.354 110.387 205.339 110.365 205.328 110.341C205.318 110.316 205.313 110.29 205.314 110.263C205.312 110.235 205.317 110.207 205.327 110.181C205.337 110.155 205.352 110.131 205.371 110.111C205.391 110.091 205.414 110.076 205.44 110.065C205.466 110.055 205.494 110.05 205.522 110.05C207.006 110.05 207.476 109.299 208.569 106.445L212.973 94.8835C213.018 94.7797 213.082 94.7203 213.141 94.7203C213.201 94.7203 213.29 94.7797 213.334 94.8835L218.51 107.548ZM214.205 103.963L212.172 98.4045L210.074 103.963H214.205Z" fill="white"/>
<path d="M232.215 98.805C232.215 98.9484 232.131 99.0326 232.027 99.0326C232 99.0361 231.973 99.0339 231.947 99.026C231.922 99.0182 231.898 99.0049 231.878 98.9871C231.857 98.9693 231.841 98.9473 231.831 98.9228C231.82 98.8982 231.814 98.8715 231.814 98.8446C231.394 96.4512 230.221 94.9429 228.311 94.9429C226.797 94.9429 225.709 95.9072 225.709 97.6677C225.709 99.5172 227.114 100.229 229.063 101.129C231.626 102.346 233.096 103.246 233.096 105.763C233.096 108.28 231.186 110.649 227.51 110.649C226.753 110.634 226 110.529 225.268 110.337C224.824 110.206 224.365 110.128 223.903 110.105C223.76 110.091 223.616 110.122 223.492 110.194C223.368 110.266 223.269 110.375 223.21 110.505C223.194 110.542 223.168 110.574 223.135 110.596C223.101 110.618 223.062 110.629 223.022 110.629C222.998 110.629 222.975 110.624 222.953 110.615C222.931 110.605 222.911 110.591 222.895 110.573C222.88 110.555 222.868 110.534 222.86 110.512C222.853 110.489 222.851 110.465 222.854 110.441C222.858 110.333 222.878 110.227 222.913 110.125C223.13 109.376 223.23 108.599 223.21 107.82C223.207 107.076 223.157 106.333 223.061 105.595C223.054 105.504 223.054 105.413 223.061 105.323C223.059 105.297 223.063 105.27 223.071 105.246C223.08 105.221 223.093 105.198 223.111 105.179C223.128 105.159 223.15 105.143 223.174 105.133C223.197 105.122 223.223 105.116 223.249 105.115C223.292 105.116 223.333 105.13 223.367 105.156C223.401 105.182 223.426 105.218 223.438 105.259C224.318 108.3 225.347 110.233 227.826 110.233C229.756 110.233 230.993 109.244 230.993 107.464C230.993 105.684 229.924 104.818 227.406 103.508C225.095 102.336 223.448 101.263 223.448 98.9584C223.448 96.1248 225.669 94.5077 228.207 94.5077C229.053 94.5132 229.89 94.6689 230.681 94.9676C230.945 95.0861 231.229 95.158 231.517 95.1802C231.834 95.1802 231.898 95.0764 232.047 94.8044C232.061 94.7605 232.088 94.7224 232.126 94.6956C232.163 94.6689 232.208 94.655 232.254 94.6561C232.315 94.6561 232.374 94.6798 232.417 94.7224C232.461 94.7649 232.486 94.8227 232.487 94.8835C232.471 95.0501 232.442 95.2153 232.403 95.378C232.277 96.3619 232.221 97.3534 232.235 98.3452L232.215 98.805Z" fill="white"/>
<path d="M250.828 108.661C250.828 109.922 250.868 109.961 252.926 110.045C252.957 110.041 252.987 110.043 253.017 110.051C253.046 110.06 253.074 110.074 253.097 110.094C253.12 110.114 253.139 110.139 253.152 110.167C253.165 110.195 253.171 110.225 253.171 110.256C253.171 110.286 253.165 110.317 253.152 110.344C253.139 110.372 253.12 110.397 253.097 110.417C253.074 110.437 253.046 110.452 253.017 110.46C252.987 110.468 252.957 110.47 252.926 110.466C252.842 110.466 252.699 110.466 252.253 110.466C251.437 110.421 250.304 110.382 249.463 110.382C248.622 110.382 247.484 110.421 246.672 110.466C246.232 110.466 246.084 110.466 245.999 110.466C245.949 110.458 245.903 110.433 245.87 110.394C245.837 110.356 245.819 110.306 245.819 110.256C245.819 110.205 245.837 110.156 245.87 110.117C245.903 110.079 245.949 110.053 245.999 110.045C248.058 109.961 248.102 109.922 248.102 108.661V102.514H240.755V108.661C240.755 109.922 240.794 109.961 242.852 110.045C242.881 110.044 242.909 110.048 242.935 110.059C242.961 110.069 242.985 110.085 243.005 110.105C243.024 110.125 243.039 110.149 243.049 110.175C243.059 110.202 243.062 110.23 243.06 110.258C243.062 110.286 243.059 110.314 243.049 110.34C243.039 110.366 243.024 110.39 243.004 110.41C242.985 110.43 242.961 110.445 242.935 110.455C242.908 110.464 242.88 110.468 242.852 110.466C242.768 110.466 242.62 110.466 242.18 110.466C241.363 110.421 240.23 110.382 239.389 110.382C238.548 110.382 237.41 110.421 236.599 110.466C236.158 110.466 236.01 110.466 235.926 110.466C235.875 110.458 235.83 110.433 235.797 110.394C235.763 110.356 235.745 110.306 235.745 110.256C235.745 110.205 235.763 110.156 235.797 110.117C235.83 110.079 235.875 110.053 235.926 110.045C237.984 109.961 238.024 109.922 238.024 108.661V96.5352C238.024 95.2791 237.984 95.2346 235.926 95.1505C235.87 95.1505 235.818 95.1286 235.779 95.0897C235.74 95.0507 235.718 94.9979 235.718 94.9428C235.718 94.8877 235.74 94.8349 235.779 94.796C235.818 94.757 235.87 94.7351 235.926 94.7351C236.01 94.7351 236.158 94.7351 236.599 94.7351C237.415 94.7747 238.548 94.8192 239.389 94.8192C240.23 94.8192 241.368 94.7747 242.18 94.7351C242.62 94.7351 242.768 94.7351 242.852 94.7351C242.908 94.7351 242.96 94.757 242.999 94.796C243.038 94.8349 243.06 94.8877 243.06 94.9428C243.06 94.9979 243.038 95.0507 242.999 95.0897C242.96 95.1286 242.908 95.1505 242.852 95.1505C240.794 95.2346 240.755 95.2791 240.755 96.5352V102.054H248.102V96.5352C248.102 95.2791 248.058 95.2346 245.999 95.1505C245.944 95.1505 245.891 95.1286 245.852 95.0897C245.813 95.0507 245.791 94.9979 245.791 94.9428C245.791 94.8877 245.813 94.8349 245.852 94.796C245.891 94.757 245.944 94.7351 245.999 94.7351C246.084 94.7351 246.232 94.7351 246.672 94.7351C247.494 94.7747 248.627 94.8192 249.463 94.8192C250.299 94.8192 251.442 94.7747 252.253 94.7351C252.699 94.7351 252.842 94.7351 252.926 94.7351C252.954 94.7351 252.981 94.7405 253.006 94.7509C253.031 94.7614 253.054 94.7767 253.073 94.796C253.093 94.8152 253.108 94.8381 253.118 94.8633C253.129 94.8885 253.134 94.9156 253.134 94.9428C253.134 94.9701 253.129 94.9971 253.118 95.0223C253.108 95.0475 253.093 95.0704 253.073 95.0897C253.054 95.109 253.031 95.1243 253.006 95.1347C252.981 95.1452 252.954 95.1505 252.926 95.1505C250.868 95.2346 250.828 95.2791 250.828 96.5352V108.661Z" fill="white"/>
<path d="M260.689 108.661C260.689 109.922 260.734 109.961 262.792 110.045C262.842 110.053 262.888 110.079 262.921 110.117C262.954 110.156 262.972 110.205 262.972 110.256C262.972 110.306 262.954 110.356 262.921 110.394C262.888 110.433 262.842 110.458 262.792 110.466C262.708 110.466 262.56 110.466 262.119 110.466C261.298 110.421 260.165 110.382 259.329 110.382C258.493 110.382 257.35 110.421 256.538 110.466C256.093 110.466 255.949 110.466 255.865 110.466C255.835 110.47 255.804 110.468 255.774 110.46C255.745 110.452 255.718 110.437 255.694 110.417C255.671 110.397 255.652 110.372 255.64 110.344C255.627 110.317 255.62 110.286 255.62 110.256C255.62 110.225 255.627 110.195 255.64 110.167C255.652 110.139 255.671 110.114 255.694 110.094C255.718 110.074 255.745 110.06 255.774 110.051C255.804 110.043 255.835 110.041 255.865 110.045C257.919 109.961 257.963 109.922 257.963 108.661V96.5352C257.963 95.2791 257.919 95.2346 255.865 95.1505C255.838 95.1505 255.811 95.1452 255.786 95.1347C255.76 95.1243 255.738 95.109 255.718 95.0897C255.699 95.0704 255.684 95.0475 255.673 95.0223C255.663 94.9971 255.657 94.9701 255.657 94.9428C255.657 94.9156 255.663 94.8885 255.673 94.8633C255.684 94.8381 255.699 94.8152 255.718 94.796C255.738 94.7767 255.76 94.7614 255.786 94.7509C255.811 94.7405 255.838 94.7351 255.865 94.7351C255.949 94.7351 256.093 94.7351 256.538 94.7351C257.355 94.7747 258.488 94.8192 259.329 94.8192C260.17 94.8192 261.308 94.7747 262.119 94.7351C262.56 94.7351 262.708 94.7351 262.792 94.7351C262.847 94.7351 262.9 94.757 262.939 94.796C262.978 94.8349 263 94.8877 263 94.9428C263 94.9979 262.978 95.0507 262.939 95.0897C262.9 95.1286 262.847 95.1505 262.792 95.1505C260.734 95.2346 260.689 95.2791 260.689 96.5352V108.661Z" fill="white"/>
<path d="M137.762 40.2638C137.915 40.2638 138.222 39.9571 138.533 39.9571C138.687 39.9571 138.687 39.9571 138.84 40.1104C138.84 41.1836 137.608 41.4951 137.148 42.0885C133.611 40.8572 130.385 41.6286 126.387 40.5506C126.54 40.244 126.847 40.244 127.307 40.244H128.846L128.999 40.0906C128.999 39.784 127.92 39.4775 127.92 38.706V38.3994C129.9 37.9395 131.765 37.4796 133.917 37.1681C133.61 35.7884 131.938 33.7905 131.151 31.9459C128.074 31.7926 125.001 30.2547 125.001 27.1837V27.0304H125.155C125.615 27.0304 125.768 27.337 126.233 27.337H126.387C126.54 27.1837 126.54 27.1837 126.54 27.0304C126.54 26.5656 125.921 26.1056 125.921 25.3391V25.1858C124.234 25.0325 123.156 24.1078 121.77 23.3413C116.085 22.7231 108.55 22.4165 102.706 21.1901C102.692 22.5958 103.065 23.9783 103.785 25.1858C103.785 25.3391 103.939 25.3391 104.092 25.3391H104.859C105.166 25.3391 105.472 25.3391 105.472 25.9523C104.399 25.9523 103.785 26.4123 102.706 26.4123C102.514 26.5883 102.36 26.8021 102.255 27.0404C102.149 27.2787 102.094 27.5363 102.093 27.7969C102.093 28.5634 102.246 29.3348 102.246 30.2695V31.041C102.093 32.574 100.708 34.1119 100.708 35.3433C100.708 35.9565 101.168 36.4164 102.4 36.723H102.246C100.094 36.723 100.094 39.9522 98.7086 41.4902C97.7883 41.3369 97.6349 40.4121 96.7295 40.2588C90.2726 40.1055 85.6613 40.5654 82.8756 35.3433C81.9855 35.0375 81.0511 34.8804 80.1099 34.8784C78.2644 34.8784 76.2654 35.4966 74.2665 35.8032H73.3265C71.1742 35.8032 69.022 35.3433 66.8697 35.3433C65.7262 35.3455 64.5879 35.5002 63.4853 35.8032C62.7184 36.4164 62.4117 37.4944 62.1 38.5675C60.9536 39.2953 59.6183 39.6702 58.2604 39.6456C54.7227 39.6456 51.0317 37.3412 47.0339 37.173H46.7273C45.3419 37.173 43.3428 37.9445 41.809 38.0978C37.8111 38.8643 32.7348 38.2511 31.1961 41.4803C33.1752 42.2468 36.2725 42.2467 38.885 42.5533C38.9644 42.5476 39.0391 42.5135 39.0954 42.4572C39.1517 42.4009 39.1858 42.3262 39.1915 42.2467C39.1915 42.0934 38.885 41.7868 38.885 41.6335V41.4803C39.5034 41.9402 42.2692 42.2468 44.2681 42.4001C39.9635 42.4001 37.5044 44.2446 34.2735 45.3178C32.9484 45.1335 31.6135 45.0311 30.2759 45.0112C26.7382 45.0112 23.2052 45.476 19.6676 45.476C16.59 45.476 13.5175 45.1644 10.7615 43.938C10.1431 43.1666 10.1431 42.0935 8.91602 42.0935H8.60944V41.0154C5.95291 38.3933 3.86002 35.2566 2.45925 31.7975C1.38063 28.7216 -0.0146484 24.5726 -0.0146484 20.8885C-0.0146484 18.2725 0.757285 15.8147 2.90958 14.5883H4.29003C4.60174 14.5883 4.9085 14.5883 4.9085 14.8949C6.13556 13.2036 10.7517 10.8992 14.131 10.8992C15.0611 10.8718 15.976 11.1401 16.7436 11.6657C17.5451 11.2299 18.4492 11.0181 19.361 11.0525C21.0531 11.0525 22.8937 11.5124 24.5859 11.5124H25.051C26.1246 11.3591 27.5247 10.8992 28.8903 10.8992C29.9193 10.8617 30.9365 11.1283 31.8146 11.6657C32.7348 11.3591 33.66 10.4393 34.7337 10.4393C35.0499 10.4155 35.3673 10.4681 35.659 10.5926C36.8861 5.82542 35.3522 1.06316 38.7316 -0.0148926H39.1915C39.9634 -0.0148926 40.8837 0.603257 41.9624 0.603257C42.5784 0.585155 43.172 0.368303 43.6545 -0.0148926C49.6462 1.67636 56.4149 4.75226 59.7942 9.66778H61.4863C61.4863 10.281 62.1 10.281 62.1 11.0525C67.6366 11.5124 72.8664 11.819 78.5514 12.1256C78.7097 7.97657 80.862 7.67488 84.3948 7.51663H85.0132C92.3904 7.51663 95.7747 12.897 102.825 14.1234C107.902 14.8949 113.127 14.5883 118.05 15.968C121.122 16.7395 124.353 18.7373 127.272 19.9637C130.656 21.5017 133.883 22.7281 135.728 24.7259C138.202 27.1985 139.112 32.4108 140.676 34.4086C140.36 35.9244 140.204 37.4692 140.211 39.0176C139.137 39.4824 138.365 39.4824 137.737 40.0956L137.762 40.2638ZM126.075 93.7411C126.387 93.7411 126.387 93.7411 126.387 93.8944C126.387 94.201 126.075 94.6609 126.075 94.9724C128.846 96.3521 130.384 98.81 131.611 101.579C130.931 102.34 130.549 103.323 130.538 104.344C130.538 105.422 130.845 106.495 131.151 108.033C128.846 109.106 125.922 109.877 124.225 110.95C123.478 110.49 122.627 110.227 121.751 110.184C121.277 110.212 120.811 110.316 120.37 110.49C116.986 109.259 113.295 109.106 109.45 109.106H99.9209C98.5355 108.953 96.9967 108.493 95.4679 108.493H93.4888C90.2579 108.493 86.5618 108.799 83.8009 109.571C82.8757 109.724 81.9555 110.95 81.0352 110.95H80.8818C79.8032 110.95 78.111 110.031 76.7305 110.031C76.3166 110.018 75.9081 110.128 75.5561 110.346C75.2042 110.564 74.9243 110.881 74.7514 111.257V111.569C74.7514 113.408 76.1319 114.333 76.2853 116.177C77.6758 114.457 79.4323 113.067 81.4273 112.11C83.4223 111.153 85.6057 110.652 87.8186 110.644C90.7318 110.619 93.5418 111.722 95.6609 113.72C97.9666 115.871 101.346 121.4 101.346 125.855C101.371 127.048 101.051 128.222 100.426 129.238C98.2733 130.929 93.2017 130.009 90.5843 131.216C89.3573 130.603 88.8923 129.238 87.6652 128.451C85.5129 127.067 83.054 127.067 81.3618 125.682C78.5911 123.843 78.5909 121.073 76.2853 118.309C76.4578 119.583 76.5603 120.866 76.5921 122.151C76.5921 129.989 72.5993 133.98 64.9104 133.98C62.7581 131.369 61.066 127.992 59.2205 124.762C57.0682 130.603 49.8442 131.191 45.0745 133.98C43.229 133.214 40.003 132.6 39.6962 130.143V129.831C39.6962 128.911 40.1565 127.359 40.1565 126.147C40.0031 124.609 39.3846 122.151 39.3846 119.847C39.3846 118.462 39.543 117.231 40.3099 116.311C41.0768 115.391 42.1554 115.386 42.7838 114.926C42.7249 114.703 42.6204 114.494 42.477 114.313C42.1702 114.313 41.8636 114.926 41.2451 114.926H41.0917C40.181 114.74 39.255 114.638 38.3257 114.62H38.1725C37.2473 114.62 37.5589 115.698 36.9404 115.851H36.0202C33.5463 115.851 31.4089 115.386 29.41 115.386C28.4848 115.544 27.4308 116.311 26.4858 116.311H26.1789C23.8733 116.158 20.3356 112.469 18.9551 110.777C16.7979 108.166 15.8778 105.09 14.1856 102.633C14.6777 101.304 14.9385 99.9004 14.9573 98.4836C14.9291 97.7071 14.8247 96.9352 14.6456 96.1791C16.031 92.1834 22.4879 93.568 26.4858 92.0301C30.4836 93.7213 34.1745 94.9527 38.3257 94.9527H39.7112C43.2439 94.7944 46.3216 92.6433 50.9329 92.6433C51.5464 92.6433 52.0115 92.7966 52.625 92.7966C49.8592 94.3345 45.0895 94.3345 41.8636 95.106C44.476 95.106 48.0135 94.7944 51.2395 94.7944C52.3189 94.7682 53.3989 94.8211 54.4705 94.9527C51.6998 96.3324 45.2429 95.5659 41.8636 97.4253C45.8894 98.4159 50.0177 98.9304 54.1637 98.9583C56.6875 98.989 59.2088 98.7837 61.6944 98.3451C62.1545 96.1939 62.4661 93.7362 62.9262 91.4218C61.7132 91.1678 60.4735 91.0648 59.2352 91.1152C55.5441 91.1152 52.0115 92.035 48.7806 92.035H47.8601C40.478 91.4218 35.4067 84.6617 32.3291 78.683C31.2505 76.3736 29.2564 72.0713 28.9447 69.2871V67.9024C28.9447 62.3737 32.1756 56.9934 34.6347 53.6109C36.3268 51.3064 40.9382 46.0842 46.3214 46.0842C46.8896 46.0657 47.4579 46.1172 48.0135 46.2375C50.1658 46.6975 50.9327 49.1552 53.085 50.2332C62.7728 46.3908 72.1489 40.5506 84.2957 40.5506C87.1893 40.5682 90.0736 40.8781 92.9048 41.4753C100.134 45.471 104.898 54.5356 109.356 62.8336C111.048 66.0041 111.946 69.5367 111.974 73.1295C111.974 77.5802 110.435 81.8874 107.051 84.9634C106.319 84.6624 105.536 84.5046 104.745 84.4985C102.439 84.4985 100.292 85.7299 98.4414 85.7299C97.8929 85.7415 97.3547 85.5806 96.9027 85.27C95.9824 86.4964 93.2167 86.9612 91.3712 86.9612C90.446 86.8079 89.5257 86.3431 88.7538 86.3431H88.447C86.9132 86.3431 85.2211 87.2678 83.8357 87.2678C83.2222 87.2678 82.4503 86.808 81.8566 86.808C79.2442 86.808 76.785 88.786 73.5541 89.1124C73.0939 90.0322 73.0938 91.7235 73.0938 93.2614C73.7769 93.5455 74.5066 93.7014 75.2462 93.7213C77.2253 93.7213 79.2441 92.7966 81.3964 92.7966C82.4021 92.795 83.3968 93.0056 84.3155 93.4147C81.3963 94.4879 77.2451 94.3345 73.5541 94.9527L74.0143 98.7902H74.7862C77.7054 98.7902 81.3963 97.717 84.3155 97.717C85.1523 97.6555 85.993 97.7597 86.7894 98.0236C90.4805 96.639 97.244 95.551 102.781 95.551H104.626C106.165 95.7043 107.392 96.011 108.777 96.011C109.728 96.0111 110.65 95.6866 111.39 95.0912C108.624 94.6263 102.484 94.3197 98.3228 93.7065C99.3593 93.1459 100.53 92.8808 101.707 92.94C103.087 92.94 104.78 93.0933 106.472 93.2466H108.317C112.315 93.2466 116.62 92.6284 120.157 92.6284C122.463 92.6284 124.462 92.7817 125.996 93.7065L126.075 93.7411ZM27.5249 27.97C29.6771 27.97 31.3692 28.2766 33.2097 28.2766C33.9816 25.9721 38.2862 27.5101 39.2065 25.6655C35.367 25.9721 30.2808 25.8188 27.5249 27.97ZM39.1867 35.8081C38.7266 35.8081 38.2664 35.6548 37.9597 35.6548C36.6498 35.6365 35.3643 36.0102 34.2686 36.7279C33.9619 36.8812 33.9618 37.0345 33.9618 37.0345C34.1152 37.0345 34.7288 36.7279 34.5755 36.7279C35.3473 36.7279 39.6518 36.1147 39.6518 35.9614C39.6518 35.8081 39.5182 35.8081 39.1867 35.8081ZM40.572 29.9678C39.6376 30.0336 38.7116 30.1876 37.8063 30.4278C37.8063 32.119 34.7288 31.9657 34.5755 32.7322C37.653 32.2723 39.9587 31.6591 42.2644 31.5058C42.2841 30.2744 41.5171 29.9678 40.5918 29.9678H40.572ZM41.8041 32.4404C40.5721 32.4404 38.5732 32.747 37.8063 33.3652C39.4984 33.2119 41.6506 33.5185 42.5709 32.4404H41.8041ZM45.1835 40.2786C44.1098 41.0451 42.7096 41.1984 41.3391 41.6632C41.683 41.2187 42.1271 40.8616 42.6352 40.621C43.1433 40.3804 43.701 40.2631 44.263 40.2786H45.1835ZM43.9565 35.6697C44.267 35.6943 44.5749 35.7456 44.8767 35.8229C45.0301 35.8229 45.0301 35.823 45.1835 35.6697C44.57 35.6697 44.8768 34.7449 44.1099 34.7449C44.1099 35.2098 43.4914 35.2098 43.4914 35.6697H43.9565ZM53.4858 101.747C56.1032 101.747 59.4825 101.441 61.1747 100.363C60.5682 100.236 59.9483 100.184 59.3292 100.209C56.41 100.209 53.9509 100.976 51.6403 101.747H53.4858ZM58.5624 66.7107C60.4079 66.7107 63.1737 65.326 64.4057 64.8661C60.8681 64.7128 58.7157 62.5616 56.41 61.4836V61.7902C56.41 63.1748 55.7915 64.7128 55.6381 65.9392C56.437 66.4003 57.3342 66.6647 58.2555 66.7107H58.5624ZM63.4804 57.3148C64.7208 57.1758 65.9528 56.9711 67.1715 56.7016C66.2462 55.9351 64.8657 53.6256 64.0938 53.6256H63.9404C63.4803 53.7839 59.3291 55.1636 58.8689 56.5483C60.2108 56.9933 61.6078 57.2512 63.0202 57.3148H63.4804ZM65.6328 34.7251C69.4772 34.7251 74.5388 33.8053 79.4866 33.8053C80.4069 33.8053 81.1786 33.9586 82.0989 33.9586C81.4854 33.0388 81.3321 31.6542 80.4068 31.3476C80.0636 31.222 79.6979 31.1697 79.3332 31.1942C77.4877 31.1942 76.1021 32.8805 74.2566 33.3454C71.0307 34.4185 67.7998 33.4987 64.2671 34.7251H65.6328ZM80.5452 29.503C79.2493 29.5414 77.9551 29.3847 76.7059 29.0381C76.8593 28.2716 77.7795 27.8117 78.685 27.8117C79.1847 27.7994 79.6731 27.9621 80.0655 28.2717V27.0452C79.7587 27.0452 79.4518 27.1985 79.145 27.1985C77.2995 27.1985 76.6713 25.8139 75.3008 25.8139C74.9285 25.8644 74.5652 25.9676 74.2221 26.1205V26.2738C74.2221 27.0452 75.6074 26.4271 75.7608 27.0452C72.6882 27.1985 69.3039 26.7337 68.0719 28.2717C68.8437 28.5783 70.2243 28.4249 70.9961 29.0381C69.1506 29.503 65.9197 28.8848 65.3061 30.5761C66.0731 30.8827 67.1517 30.8827 67.78 31.3476C67.2163 31.6611 66.5795 31.8198 65.9345 31.8074H64.4205C64.4205 32.5739 65.034 32.7272 65.8009 32.7272C66.4194 32.7272 67.1863 32.574 67.78 32.574C68.0473 32.5347 68.32 32.5888 68.5519 32.7272V32.2674C68.5808 31.9658 68.7239 31.6866 68.952 31.4871C69.1801 31.2876 69.476 31.1828 69.779 31.1942C70.2517 31.238 70.691 31.4567 71.0108 31.8074C71.0108 31.9607 70.239 32.4207 70.239 32.574C70.239 32.7273 70.3926 32.7272 70.7043 32.7272H73.8213C73.8213 31.5008 73.3612 31.8074 72.9011 31.5008C73.2078 31.3475 72.9009 30.4228 73.361 30.4228H74.1281C75.6669 30.4228 77.6656 30.7294 79.051 30.7294C79.6788 30.7281 80.3021 30.6245 80.8965 30.4228C80.5848 30.2695 80.5849 30.1162 80.5849 29.9629L80.5452 29.503ZM69.7838 20.8984C70.0019 21.1712 70.2855 21.3846 70.6081 21.5186C70.9308 21.6526 71.282 21.7029 71.6293 21.6648C72.3723 21.6765 73.1084 21.5193 73.7817 21.205C73.3215 20.8984 72.0896 20.8984 71.1693 20.8984H69.7838ZM78.6898 24.4292C78.6898 24.1226 78.3782 23.9693 78.3782 23.6627C78.4616 23.5801 78.5156 23.4724 78.5316 23.3561C77.2072 23.1657 75.8717 23.0632 74.5337 23.0495C72.5546 23.0495 70.6942 23.3561 70.0807 24.7358C71.9262 24.7358 74.0786 25.354 75.9241 25.354C76.9098 25.4316 77.8913 25.1583 78.6949 24.5825L78.6898 24.4292ZM75.3056 64.693C80.6888 63.9265 88.6646 63.4617 92.6773 62.8484C92.6773 62.5418 92.8307 62.2352 92.8307 61.9237C92.8307 59.4511 90.8515 57.933 89.4513 56.0884C87.7591 53.9372 86.6807 49.9415 83.4547 49.9415C80.2288 49.9415 77.4579 52.246 73.4601 52.246C73.8575 53.5846 74.6637 54.7655 75.7658 55.6235C76.3723 55.4965 76.9922 55.445 77.6114 55.4703C80.5306 55.4703 82.2226 57.3148 83.9147 59.1594C82.8361 60.2374 82.2226 62.0819 80.9956 63.1551C79.0873 63.0791 77.1769 63.2336 75.3056 63.615C75.459 63.7683 75.459 63.7683 75.459 63.9265C75.459 64.2331 75.1522 64.5397 75.1522 64.693H75.3056ZM104.211 103.419C104.978 103.419 105.596 103.419 105.903 102.954C99.5992 102.647 92.3704 102.034 85.4534 102.034C83.4743 102.034 81.4558 102.034 79.6103 102.188C81.2897 101.612 83.0609 101.352 84.835 101.421C86.3737 101.421 87.9125 101.574 89.288 101.574C91.1335 101.574 92.8209 101.421 94.2063 100.803C88.2096 100.036 80.5207 100.803 74.6823 99.7298C73.9105 99.8831 73.9103 100.803 73.4502 101.268C75.1423 101.574 77.2945 101.421 78.6799 102.034C77.4479 102.801 76.206 102.188 74.8355 103.419C83.1379 103.879 92.8209 103.879 99.8962 104.339C100.203 103.572 101.123 103.419 102.202 103.419H104.211ZM76.2258 21.0516C76.2258 21.2049 77.1513 21.3582 77.7648 21.3582C78.2249 21.3582 78.5315 21.3583 78.6898 21.205C78.5359 20.9304 78.3132 20.7007 78.0433 20.5385C77.7735 20.3764 77.4659 20.2873 77.1511 20.2802C76.691 20.2802 76.3792 20.4335 76.3792 20.8984L76.2258 21.0516ZM107.595 32.4256C107.13 33.197 105.903 33.3504 104.978 33.8103V33.3503C104.978 32.5789 105.596 32.4256 106.516 32.4256H107.595ZM109.901 27.3568C109.282 26.7386 108.208 26.5853 107.13 26.432C107.257 26.0935 107.491 25.8057 107.796 25.612C108.101 25.4183 108.462 25.3295 108.822 25.3589C110.054 25.3851 111.244 25.8161 112.206 26.5853C112.053 27.2035 111.128 26.8969 110.974 27.3568C111.434 27.8167 112.206 27.6634 112.666 27.97C111.613 28.9524 110.258 29.5487 108.822 29.6612C108.822 28.5832 109.901 28.5832 109.901 27.5101V27.3568ZM116.664 34.28C114.972 34.28 112.513 33.207 110.668 32.8954C110.878 32.7036 111.15 32.5947 111.434 32.5888C111.746 32.5888 111.9 32.7421 112.206 32.7421C112.666 32.5888 113.127 32.5888 113.127 32.1289V31.9756C113.74 33.3603 115.6 33.8201 116.971 34.28H116.664ZM113.587 29.9777C112.973 29.9777 112.36 29.8244 112.206 29.5178C112.375 29.3563 112.589 29.2494 112.82 29.2112C113.454 29.2733 114.076 29.4283 114.665 29.6711C114.356 29.8756 113.992 29.9792 113.621 29.9678L113.587 29.9777ZM116.971 27.5051C116.419 27.5411 115.873 27.3779 115.432 27.0452C115.586 26.7337 116.051 26.5804 116.664 26.5804C117.278 26.5804 118.05 26.7337 118.643 26.7337C118.95 26.7337 119.104 26.5804 119.41 26.5804C119.158 27.2035 117.931 27.5101 117.006 27.5101L116.971 27.5051ZM120.202 30.1162C119.123 30.1162 118.223 30.2695 117.585 31.041C117.278 30.5761 117.278 29.8096 116.971 29.1964C118.663 29.3497 120.355 29.3497 121.736 29.6563C121.736 28.8848 121.429 28.4249 120.969 28.4249C120.738 28.4632 120.524 28.57 120.355 28.7315V27.3518H122.968C123.046 28.1464 123.367 28.8976 123.888 29.503C123.147 29.9595 122.282 30.1738 121.414 30.1162H120.202ZM120.355 21.0516C119.277 21.0516 118.203 21.205 117.585 21.8182C118.281 22.2331 119.079 22.4455 119.89 22.4314C120.815 22.4314 121.869 22.278 122.814 22.278C123.389 22.306 123.958 22.4091 124.506 22.5847C123.794 21.5165 122.082 21.0566 120.39 21.0566L120.355 21.0516ZM122.508 32.574C122.508 32.2674 122.814 32.114 123.121 32.114C123.504 32.0993 123.882 32.2066 124.2 32.4206C124.353 32.7272 123.735 32.8806 123.275 32.8806C122.968 32.8806 122.508 32.8805 122.508 32.7272V32.574Z" fill="white"/>
</g>
<defs>
<clipPath id="clip0_202_292">
<rect width="263" height="134" fill="white"/>
</clipPath>
</defs>
</svg>
